<svg id="visual" viewBox="0 0 900 600" width="900" height="600" xmlns="http://www.w3.org/2000/svg" xmlns:xlink="http://www.w3.org/1999/xlink" version="1.1"><rect x="0" y="0" width="900" height="600" fill="#ffffff"></rect><path d="M0 360L16.7 358.5C33.3 357 66.7 354 100 351.7C133.3 349.3 166.7 347.7 200 342.5C233.3 337.3 266.7 328.7 300 323C333.3 317.3 366.7 314.7 400 324.7C433.3 334.7 466.7 357.3 500 356C533.3 354.7 566.7 329.3 600 317.8C633.3 306.3 666.7 308.7 700 327.3C733.3 346 766.7 381 800 383.8C833.3 386.7 866.7 357.3 883.3 342.7L900 328L900 601L883.3 601C866.7 601 833.3 601 800 601C766.7 601 733.3 601 700 601C666.7 601 633.3 601 600 601C566.7 601 533.3 601 500 601C466.7 601 433.3 601 400 601C366.7 601 333.3 601 300 601C266.7 601 233.3 601 200 601C166.7 601 133.3 601 100 601C66.7 601 33.3 601 16.7 601L0 601Z" fill="#efefef"></path><path d="M0 375L16.7 382.2C33.3 389.3 66.7 403.7 100 415.3C133.3 427 166.7 436 200 431.7C233.3 427.3 266.7 409.7 300 399.3C333.3 389 366.7 386 400 380.3C433.3 374.7 466.7 366.3 500 373.7C533.3 381 566.7 404 600 418.8C633.3 433.7 666.7 440.3 700 441.3C733.3 442.3 766.7 437.7 800 429C833.3 420.3 866.7 407.7 883.3 401.3L900 395L900 601L883.3 601C866.7 601 833.3 601 800 601C766.7 601 733.3 601 700 601C666.7 601 633.3 601 600 601C566.7 601 533.3 601 500 601C466.7 601 433.3 601 400 601C366.7 601 333.3 601 300 601C266.7 601 233.3 601 200 601C166.7 601 133.3 601 100 601C66.7 601 33.3 601 16.7 601L0 601Z" fill="#eaeaea"></path><path d="M0 436L16.7 438.5C33.3 441 66.7 446 100 452.2C133.3 458.3 166.7 465.7 200 472.7C233.3 479.7 266.7 486.3 300 481.5C333.3 476.7 366.7 460.3 400 454.3C433.3 448.3 466.7 452.7 500 455.7C533.3 458.7 566.7 460.3 600 463.5C633.3 466.7 666.7 471.3 700 463.5C733.3 455.7 766.7 435.3 800 423.5C833.3 411.7 866.7 408.3 883.3 406.7L900 405L900 601L883.3 601C866.7 601 833.3 601 800 601C766.7 601 733.3 601 700 601C666.7 601 633.3 601 600 601C566.7 601 533.3 601 500 601C466.7 601 433.3 601 400 601C366.7 601 333.3 601 300 601C266.7 601 233.3 601 200 601C166.7 601 133.3 601 100 601C66.7 601 33.3 601 16.7 601L0 601Z" fill="#e5e5e5"></path><path d="M0 506L16.7 500.8C33.3 495.7 66.7 485.3 100 486.3C133.3 487.3 166.7 499.7 200 499.3C233.3 499 266.7 486 300 479.8C333.3 473.7 366.7 474.3 400 473.2C433.3 472 466.7 469 500 467.8C533.3 466.7 566.7 467.3 600 466.7C633.3 466 666.7 464 700 467.8C733.3 471.7 766.7 481.3 800 488.7C833.3 496 866.7 501 883.3 503.5L900 506L900 601L883.3 601C866.7 601 833.3 601 800 601C766.7 601 733.3 601 700 601C666.7 601 633.3 601 600 601C566.7 601 533.3 601 500 601C466.7 601 433.3 601 400 601C366.7 601 333.3 601 300 601C266.7 601 233.3 601 200 601C166.7 601 133.3 601 100 601C66.7 601 33.3 601 16.7 601L0 601Z" fill="#e0e0e0"></path><path d="M0 544L16.7 543.2C33.3 542.3 66.7 540.7 100 540.5C133.3 540.3 166.7 541.7 200 538.7C233.3 535.7 266.7 528.3 300 527.8C333.3 527.3 366.7 533.7 400 536.7C433.3 539.7 466.7 539.3 500 535.3C533.3 531.3 566.7 523.7 600 521.7C633.3 519.7 666.7 523.3 700 531C733.3 538.7 766.7 550.3 800 548.5C833.3 546.7 866.7 531.3 883.3 523.7L900 516L900 601L883.3 601C866.7 601 833.3 601 800 601C766.7 601 733.3 601 700 601C666.7 601 633.3 601 600 601C566.7 601 533.3 601 500 601C466.7 601 433.3 601 400 601C366.7 601 333.3 601 300 601C266.7 601 233.3 601 200 601C166.7 601 133.3 601 100 601C66.7 601 33.3 601 16.7 601L0 601Z" fill="#dbdbdb"></path></svg>